<svg width="21" height="21" viewBox="0 0 21 21" fill="none" xmlns="http://www.w3.org/2000/svg">
<path d="M16.546 0.273438H3.72462C1.72744 0.273438 0.108398 1.89248 0.108398 3.88966V16.711C0.108398 18.7082 1.72744 20.3272 3.72462 20.3272H16.546C18.5431 20.3272 20.1622 18.7082 20.1622 16.711V3.88966C20.1622 1.89248 18.5431 0.273438 16.546 0.273438Z" fill="#E5E5E5"/>
<path d="M6.82515 13.9664C6.87455 14.0182 6.93395 14.0594 6.99976 14.0876C7.06557 14.1158 7.13642 14.1304 7.20802 14.1304C7.27962 14.1304 7.35047 14.1158 7.41628 14.0876C7.48209 14.0594 7.5415 14.0182 7.59089 13.9664L10.4902 11.067L13.3895 13.9664C13.4389 14.0182 13.4983 14.0594 13.5641 14.0876C13.6299 14.1158 13.7008 14.1304 13.7724 14.1304C13.844 14.1304 13.9148 14.1158 13.9806 14.0876C14.0464 14.0594 14.1059 14.0182 14.1552 13.9664C14.2071 13.917 14.2483 13.8576 14.2765 13.7917C14.3047 13.7259 14.3193 13.6551 14.3193 13.5835C14.3193 13.5119 14.3047 13.441 14.2765 13.3752C14.2483 13.3094 14.2071 13.25 14.1552 13.2006L11.255 10.3013L14.1543 7.402C14.246 7.29857 14.2948 7.16403 14.2907 7.02586C14.2865 6.88769 14.2298 6.75632 14.132 6.65858C14.0343 6.56084 13.9029 6.5041 13.7647 6.49995C13.6266 6.4958 13.492 6.54456 13.3886 6.63626L10.4893 9.53557L7.59089 6.63716C7.54181 6.58181 7.48194 6.53709 7.41494 6.50573C7.34794 6.47437 7.27523 6.45705 7.20129 6.45483C7.12735 6.45261 7.05373 6.46554 6.98497 6.49282C6.91621 6.5201 6.85376 6.56116 6.80145 6.61346C6.74915 6.66577 6.70809 6.72823 6.68081 6.79699C6.65353 6.86575 6.6406 6.93936 6.64282 7.0133C6.64504 7.08724 6.66236 7.15995 6.69372 7.22695C6.72507 7.29395 6.7698 7.35383 6.82515 7.4029L9.72356 10.3013L6.82515 13.2006C6.77332 13.25 6.73206 13.3094 6.70387 13.3752C6.67567 13.441 6.66113 13.5119 6.66113 13.5835C6.66113 13.6551 6.67567 13.7259 6.70387 13.7917C6.73206 13.8576 6.77332 13.917 6.82515 13.9664Z" fill="#161616"/>
</svg>
