<svg width="36" height="29" viewBox="0 0 36 29" fill="none" xmlns="http://www.w3.org/2000/svg">
<path d="M28.8313 11.1341C28.6399 8.5422 27.5438 6.09997 25.7344 4.23429C23.925 2.36861 21.5175 1.19815 18.9326 0.927476C16.3478 0.656804 13.7501 1.30314 11.5934 2.75352C9.4368 4.20391 7.85848 6.36607 7.13432 8.86212C4.93108 9.63784 3.07236 11.1664 1.88574 13.1783C0.699128 15.1903 0.260775 17.5565 0.647939 19.86C1.0351 22.1635 2.22293 24.2564 4.00209 25.7699C5.78125 27.2834 8.03754 28.1203 10.3733 28.1331H26.4003C28.4805 28.1214 30.4873 27.3628 32.0551 25.9956C33.6229 24.6284 34.6475 22.7434 34.942 20.6841C35.2366 18.6249 34.7817 16.5283 33.6601 14.7763C32.5384 13.0243 30.8248 11.7336 28.8313 11.1391V11.1341ZM23.8403 14.9701C23.7474 15.196 23.5896 15.3892 23.3868 15.5253C23.1841 15.6615 22.9455 15.7345 22.7013 15.7351H20.2363V20.6921C20.2429 21.0201 20.184 21.346 20.0631 21.651C19.9422 21.9559 19.7616 22.2336 19.532 22.4679C19.3024 22.7021 19.0284 22.8882 18.726 23.0153C18.4236 23.1423 18.0988 23.2078 17.7708 23.2078C17.4428 23.2078 17.1181 23.1423 16.8157 23.0153C16.5133 22.8882 16.2392 22.7021 16.0096 22.4679C15.78 22.2336 15.5995 21.9559 15.4785 21.651C15.3576 21.346 15.2987 21.0201 15.3053 20.6921V15.7341H12.8393C12.5946 15.733 12.3558 15.6595 12.1528 15.523C11.9498 15.3864 11.7917 15.1928 11.6985 14.9666C11.6052 14.7404 11.581 14.4916 11.6289 14.2517C11.6767 14.0117 11.7945 13.7913 11.9673 13.6181L16.8983 8.66212C17.0125 8.54713 17.1482 8.45587 17.2978 8.3936C17.4474 8.33132 17.6078 8.29926 17.7698 8.29926C17.9318 8.29926 18.0923 8.33132 18.2418 8.3936C18.3914 8.45587 18.5272 8.54713 18.6413 8.66212L23.5723 13.6191C23.745 13.7927 23.8627 14.0134 23.9106 14.2535C23.9584 14.4937 23.9343 14.7426 23.8413 14.9691L23.8403 14.9701Z" fill="#737373"/>
</svg>
